<?xml version="1.0" encoding="UTF-8"?>
<svg id="svg1" version="1.1" viewBox="0 0 256 256" xml:space="preserve" xmlns="http://www.w3.org/2000/svg"><path id="path1" d="m142.54 10-23.814 1.3086-8.8477 11.059-1.9394 20.957 7.4844 66.514-12.984 25.76-14.512-1.0938-13.461-23.66-44.529-6.6289-14.861 12.057-15.074 12.229v65.398h51.412l97.74 52.703 84.406-16.816 22.375-46.725v-73.57l-17.857-42.268-1.3633-12.277-1.748-15.732-11.852-13.586-29.635 2.6426-4.2559 11.818-3.543 9.8398 6.8242 18.875 6.0039 49.445-5.4355 25.646-18.787-2.3066-10.621-55.838-9.084-36.172 2.7129-12.768-2.2305-19.41zm-3.7598 15.396 2.0762 1.2266 1.0879 9.459-2.9277 13.781 9.832 39.154 12.605 66.277 43.574 5.3457 8.8418-41.717-6.5176-53.658-5.5488-15.348 1.6895-4.6914 0.97656-2.7109 12.295-1.0957 3.6504 4.1855 1.2246 11.016 1.6074 14.471 17.521 41.471v67.055l-17.613 36.777-71.609 14.266-96.305-51.928h-40.074v-43.006l9.4629-7.6777 9.6777-7.8496 30.625 4.5586 13.805 24.262 32.676 2.4648 19.588-38.854-7.8184-69.457 1.3789-14.881 1.7695-2.2129z" fill="currentColor" stroke-linecap="round" /></svg>
