<?xml version="1.0" encoding="UTF-8" standalone="no"?>
<!-- Created with Inkscape (http://www.inkscape.org/) -->

<svg
   width="307.63501mm"
   height="90.949997mm"
   viewBox="0 0 307.63501 90.949997"
   version="1.1"
   id="svg5"
   xml:space="preserve"
   inkscape:version="1.2.2 (b0a84865, 2022-12-01)"
   sodipodi:docname="folivoro-logo-green.svg"
   xmlns:inkscape="http://www.inkscape.org/namespaces/inkscape"
   xmlns:sodipodi="http://sodipodi.sourceforge.net/DTD/sodipodi-0.dtd"
   xmlns="http://www.w3.org/2000/svg"
   xmlns:svg="http://www.w3.org/2000/svg"><sodipodi:namedview
     id="namedview7"
     pagecolor="#ffffff"
     bordercolor="#000000"
     borderopacity="0.25"
     inkscape:showpageshadow="2"
     inkscape:pageopacity="0.0"
     inkscape:pagecheckerboard="0"
     inkscape:deskcolor="#d1d1d1"
     inkscape:document-units="mm"
     showgrid="false"
     showguides="true"
     inkscape:zoom="0.21997578"
     inkscape:cx="518.23887"
     inkscape:cy="438.68466"
     inkscape:window-width="2560"
     inkscape:window-height="1027"
     inkscape:window-x="0"
     inkscape:window-y="25"
     inkscape:window-maximized="0"
     inkscape:current-layer="layer1"><inkscape:grid
       type="xygrid"
       id="grid2950"
       originx="77.507542"
       originy="-376.1268" /></sodipodi:namedview><defs
     id="defs2" /><g
     inkscape:label="Ebene 1"
     inkscape:groupmode="layer"
     id="layer1"
     transform="translate(77.507533,-376.12687)"><g
       id="g2955"
       transform="translate(9.9998633,9.9999863)"><path
         id="text2942"
         style="font-weight:300;font-size:89.2541px;font-family:'CocoSharp Trial';-inkscape-font-specification:'CocoSharp Trial, Light';fill:#008000;stroke-width:1.39946"
         d="m -31.59011,399.11911 c -6.595268,0 -12.231855,2.33893 -16.909552,7.01663 -4.677696,4.6777 -7.016623,10.32864 -7.016623,16.95297 0,6.59526 2.338927,12.23186 7.016623,16.90956 4.677697,4.6777 10.314284,7.01662 16.909552,7.01662 6.624317,0 12.260914,-2.33892 16.909551,-7.01662 4.6777,-4.6777 7.0166295,-10.3143 7.0166295,-16.90956 0,-6.62433 -2.3389295,-12.27527 -7.0166295,-16.95297 -4.648637,-4.6777 -10.285234,-7.01663 -16.909551,-7.01663 z m 0,4.18372 c 5.462157,0 10.125134,1.93184 13.989324,5.79603 1.466167,1.46618 2.652697,3.04819 3.562568,4.74442 -0.925851,-0.29712 -1.838791,-0.48409 -2.708362,-0.5147 -0.12451,-0.004 -0.24747,-0.006 -0.36949,-0.006 -1.830236,0.004 -3.378926,0.52317 -4.606427,1.37201 -2.681096,1.85391 -3.832276,5.28203 -3.049946,8.35452 1.16511,4.57265 5.463887,4.88981 11.850955,5.55781 0.12561,0.0131 0.24702,0.0296 0.368451,0.046 -0.888621,3.13676 -2.568692,5.94626 -5.047749,8.42532 -3.86419,3.83514 -8.527167,5.75262 -13.989324,5.75262 -5.462157,0 -10.125134,-1.91748 -13.989321,-5.75262 -2.823381,-2.82339 -4.610777,-6.07538 -5.371237,-9.75186 0.21147,-0.0184 0.42639,-0.0334 0.65009,-0.0408 6.418253,-0.21588 10.730244,-0.22849 12.21423,-4.70824 1.485291,-4.47911 -1.247616,-10.04583 -7.318933,-10.26087 -0.14579,-0.005 -0.29316,-0.006 -0.44183,-0.003 v 5.1e-4 c -0.84655,0.0183 -1.73744,0.17075 -2.643251,0.416 0.803661,-1.27902 1.770981,-2.49083 2.910931,-3.63079 3.864187,-3.86419 8.527164,-5.79603 13.989321,-5.79603 z m 17.892962,11.21121 c 0.0386,0.0797 0.0767,0.15961 0.1142,0.23977 -0.0375,-0.0802 -0.0756,-0.16012 -0.1142,-0.23977 z m 0.42426,0.93691 c 0.0239,0.0572 0.046,0.11515 0.0693,0.1726 -0.0233,-0.0574 -0.0454,-0.11543 -0.0693,-0.1726 z m 0.30696,0.79117 c 0.0262,0.0719 0.0527,0.14369 0.078,0.216 -0.0253,-0.0723 -0.0518,-0.14405 -0.078,-0.216 z m 0.31522,0.94145 c 0.0247,0.0813 0.0477,0.16323 0.0713,0.24495 -0.0236,-0.0817 -0.0466,-0.16368 -0.0713,-0.24495 z m -31.809923,0.50901 c 1.044036,-0.008 2.073177,0.48518 2.709387,1.41077 1.01761,1.48047 0.64322,3.50568 -0.83715,4.52324 -1.480957,1.01796 -3.506117,0.64229 -4.523757,-0.83819 -1.017961,-1.48095 -0.64278,-3.5058 0.83819,-4.52376 0.55517,-0.38161 1.1869,-0.56707 1.81333,-0.57206 z m 32.059004,0.39221 c 0.0126,0.0504 0.0265,0.1003 0.0388,0.15089 -0.0122,-0.0506 -0.0261,-0.1005 -0.0388,-0.15089 z m -5.818759,0.50074 c 1.044456,-0.009 2.074187,0.48463 2.710427,1.41025 1.01761,1.48046 0.64223,3.50633 -0.83871,4.52427 -1.480477,1.01764 -3.505607,0.64179 -4.523237,-0.83871 -1.017981,-1.48096 -0.64284,-3.50558 0.83768,-4.52323 0.55534,-0.38174 1.18716,-0.56741 1.81384,-0.57258 z m 6.027018,0.43098 c 0.0152,0.077 0.0301,0.1541 0.0444,0.23151 -0.0143,-0.0774 -0.0292,-0.1545 -0.0444,-0.23151 z m 0.177768,1.03765 c 0.007,0.0521 0.0136,0.10482 0.0207,0.15709 -0.007,-0.0523 -0.0132,-0.10498 -0.0207,-0.15709 z m 0.108,0.91002 c 0.006,0.0567 0.0115,0.11312 0.0165,0.17001 -0.005,-0.0569 -0.011,-0.1133 -0.0165,-0.17001 z m 0.0749,1.02429 c 0.003,0.0653 0.006,0.13086 0.008,0.19637 -0.003,-0.0655 -0.005,-0.13111 -0.008,-0.19637 z m 0.008,2.00247 c -0.003,0.0864 -0.008,0.17237 -0.0124,0.25838 0.004,-0.086 0.009,-0.17198 0.0124,-0.25838 z m -0.0594,0.9493 c -0.006,0.0756 -0.0114,0.15161 -0.0186,0.22686 0.007,-0.0752 0.0122,-0.15131 0.0186,-0.22686 z m -20.15483,0.64853 c -1.310941,0.005 -2.557127,0.21771 -3.180677,0.65888 -0.25499,0.17968 -0.40546,0.39788 -0.41445,0.65577 -0.0708,2.00581 2.298796,3.71815 3.926377,3.77548 1.62754,0.0574 4.111306,-1.48235 4.182166,-3.48816 0.0363,-1.04367 -2.328526,-1.61065 -4.513416,-1.60197 z m 20.03856,0.41913 c -0.0115,0.084 -0.0252,0.16703 -0.0377,0.25063 0.0125,-0.0836 0.0262,-0.16665 0.0377,-0.25063 z m -0.139011,0.86041 c -0.0182,0.10014 -0.0366,0.2002 -0.0563,0.29972 0.0197,-0.0995 0.0381,-0.19958 0.0563,-0.29972 z m -0.214456,1.0304 c -0.0117,0.0491 -0.0235,0.0983 -0.0357,0.14728 0.0121,-0.049 0.0239,-0.0981 0.0357,-0.14728 z m -28.142447,3.6897 c -0.34512,3.17138 6.102667,4.25982 8.561744,4.34702 2.45899,0.0865 9.041277,-0.54154 8.920377,-3.72949 -2.46764,2.04497 -5.650747,2.11284 -8.859407,1.99988 -3.209377,-0.11396 -6.305058,-0.40351 -8.622714,-2.61741 z"
         sodipodi:nodetypes="ssssscscscscccccsccsccccccccssccccccccccccccsssccccccsssccccccccccccccccccccccsccccccccccccccccc" /><text
         xml:space="preserve"
         style="font-weight:300;font-size:89.2541px;font-family:'CocoSharp Trial';-inkscape-font-specification:'CocoSharp Trial, Light';fill:#008000;stroke-width:1.39946"
         x="-81.429832"
         y="445.85663"
         id="text2731"><tspan
           sodipodi:role="line"
           id="tspan2729"
           style="font-style:normal;font-variant:normal;font-weight:normal;font-stretch:normal;font-family:'Caviar Dreams';-inkscape-font-specification:'Caviar Dreams';fill:#008000;stroke-width:1.39946"
           x="-81.429832"
           y="445.85663">folivoro</tspan></text></g></g></svg>
